<svg width="32" height="16" viewBox="0 0 32 16" fill="none" xmlns="http://www.w3.org/2000/svg">
<g clip-path="url(#clip0_47_1164)">
<path d="M8.80912 11.3408C8.09625 11.3408 7.53833 11.802 7.53833 12.3911C7.53833 12.9803 8.09625 13.4414 8.80912 13.4414C9.52199 13.4414 10.0799 12.9803 10.0799 12.3911C10.0799 11.802 9.52199 11.3408 8.80912 11.3408ZM8.80912 12.7065C8.50229 12.7065 8.27324 12.5399 8.27324 12.3911C8.27324 12.2423 8.50229 12.0757 8.80912 12.0757C9.11595 12.0757 9.34499 12.2423 9.34499 12.3911C9.34499 12.5399 9.11595 12.7065 8.80912 12.7065Z" fill="#94BF36"/>
<path d="M12.643 11.3408C11.9301 11.3408 11.3722 11.802 11.3722 12.3911C11.3722 12.9803 11.9301 13.4414 12.643 13.4414C13.3558 13.4414 13.9138 12.9803 13.9138 12.3911C13.9138 11.802 13.3558 11.3408 12.643 11.3408ZM12.643 12.7065C12.3362 12.7065 12.1071 12.5399 12.1071 12.3911C12.1071 12.2423 12.3362 12.0757 12.643 12.0757C12.9498 12.0757 13.1789 12.2423 13.1789 12.3911C13.1789 12.5399 12.9498 12.7065 12.643 12.7065Z" fill="#94BF36"/>
<path d="M1.5794 7.01705C1.49121 7.09544 1.40363 7.17689 1.31789 7.26325C0.667493 7.88731 0.813251 9.05031 1.59777 9.49371C2.41965 9.97631 3.13007 10.1851 3.93174 10.097C4.32002 10.048 4.70768 9.91078 5.08739 9.6903C5.2552 9.93956 5.44444 10.1662 5.65328 10.3652C6.24611 10.9292 6.36614 11.3598 6.06666 12.1094C5.66246 13.1193 6.07769 14.4507 7.1378 14.5891C7.52608 15.4404 8.22425 15.9744 8.99775 15.9977C9.11105 16.0008 12.3422 16.0008 12.4555 15.9977C13.229 15.9744 13.9272 15.4404 14.3155 14.5891C15.3756 14.4501 15.7902 13.1175 15.3854 12.1069C15.0865 11.3604 15.2065 10.9292 15.7994 10.3652C16.0082 10.1662 16.1975 9.93956 16.3653 9.6903C16.745 9.91139 17.132 10.0486 17.5209 10.097C18.3226 10.1858 19.0336 9.97631 19.8549 9.49371C20.6394 9.0497 20.7852 7.8867 20.1348 7.26325C20.049 7.17689 19.9621 7.09544 19.8733 7.01705C20.5022 6.43402 20.9566 5.68073 21.1918 4.82762C21.6836 3.043 21.1471 1.14815 19.888 0.212356C19.3545 -0.282486 18.4316 0.149276 18.4445 0.876228C18.4683 2.26277 17.1449 3.05892 16.2097 3.4521C15.4748 2.49243 14.4049 1.96145 13.1439 1.96145C12.51 1.96145 11.9558 2.20275 11.5112 2.39628C10.7628 2.72882 10.6911 2.72821 9.94273 2.39628C9.49749 2.20275 8.94385 1.96145 8.30999 1.96145C7.049 1.96145 5.97847 2.49243 5.24417 3.4521C4.30899 3.05892 2.98554 2.26277 3.00942 0.876228C3.02228 0.148663 2.09874 -0.282486 1.56593 0.212356C0.304936 1.14753 -0.230939 3.04239 0.260841 4.82762C0.496013 5.68073 0.950435 6.43402 1.5794 7.01705ZM3.84049 9.36755C3.13926 9.45513 2.43986 9.14218 1.97687 8.86352C1.59471 8.64734 1.52428 8.08329 1.84091 7.77952C1.94808 7.67112 2.05771 7.5713 2.16917 7.47943C2.81712 7.90875 3.58082 8.18373 4.44924 8.29948C4.52457 8.56098 4.61766 8.81147 4.7279 9.04848C4.43087 9.22302 4.13384 9.33019 3.84049 9.36694V9.36755ZM12.4335 15.2628C12.2099 15.2695 9.24211 15.2695 9.01918 15.2628C8.66275 15.2524 8.32346 15.0509 8.06134 14.7116C8.25671 14.7196 8.4435 14.7196 8.61131 14.7196C8.61131 14.7196 13.1959 14.7196 13.3913 14.7116C13.1292 15.0509 12.7905 15.2524 12.4341 15.2628H12.4335ZM14.8066 13.1009C14.7742 13.7783 14.3149 13.9847 12.8413 13.9847H8.61131C7.1378 13.9847 6.67848 13.7783 6.64602 13.1021C6.62887 12.772 6.71033 12.4358 6.85425 12.1431C7.16352 11.5331 7.78146 11.105 8.49984 11.0652C8.92119 11.0419 9.32968 11.1503 9.68061 11.3775C10.3163 11.7903 11.137 11.7897 11.7727 11.3775C12.1236 11.1497 12.5315 11.0419 12.9534 11.0652C13.6718 11.1044 14.2897 11.5325 14.599 12.1425C14.7429 12.4346 14.825 12.7708 14.8079 13.1003L14.8066 13.1009ZM19.4758 8.86413C19.0128 9.14279 18.3134 9.45635 17.6122 9.36816C17.3194 9.33142 17.0218 9.22424 16.7248 9.0497C16.835 8.81208 16.9281 8.56159 17.0034 8.3007C17.8718 8.18434 18.6355 7.90997 19.2835 7.48066C19.3943 7.57252 19.5046 7.67235 19.6117 7.78075C19.9284 8.08451 19.8579 8.64856 19.4758 8.86475V8.86413ZM19.1794 0.878066C19.1873 0.718834 19.327 0.700461 19.4397 0.795388C20.4006 1.60441 20.8911 3.15263 20.4832 4.63287C20.0558 6.18476 18.8597 7.22099 17.1675 7.53027C17.3109 6.51731 17.1927 5.46638 16.8295 4.55754C16.7627 4.39096 16.6886 4.23173 16.6084 4.07923C17.606 3.63338 19.0893 2.64737 19.1788 0.877453L19.1794 0.878066ZM5.30542 4.83007C5.62388 4.0333 6.4378 2.69698 8.30938 2.69698C8.79075 2.69698 9.2268 2.88683 9.64876 3.07056C10.5503 3.48579 10.9024 3.48517 11.8033 3.07056C12.2252 2.88683 12.6619 2.69698 13.1433 2.69698C15.0149 2.69698 15.8288 4.0333 16.1472 4.83007C16.8387 6.56018 16.4718 8.71103 15.2929 9.83238C14.9677 10.1423 14.7454 10.446 14.6211 10.7663C14.2389 10.2917 13.8347 9.99958 13.4599 9.72888C13.0324 9.42022 12.6576 9.14891 12.3741 8.63447C12.6772 8.77778 13.0318 8.83841 13.3766 8.80657C14.3222 8.72266 15.0467 7.99816 15.1796 7.04951C15.2825 6.31643 14.4135 5.77627 13.8004 6.18966C13.0318 6.70839 12.3116 6.8719 11.6269 6.7335C11.3887 6.67776 11.151 6.90069 11.1902 7.14137C11.4603 9.20158 12.2595 9.76808 13.0441 10.3358C12.45 10.2905 11.8676 10.4399 11.3721 10.7614C10.9796 11.0162 10.4725 11.0162 10.0805 10.7614C9.58507 10.4399 9.00204 10.2899 8.40859 10.3358C9.19311 9.76808 9.99294 9.20158 10.2624 7.14137C10.3016 6.9013 10.064 6.67776 9.82575 6.7335C9.14167 6.8719 8.42145 6.70839 7.65224 6.18966C7.0392 5.77627 6.17016 6.31643 6.27305 7.04951C6.40595 7.99816 7.13045 8.72266 8.07604 8.80657C8.42084 8.83841 8.77544 8.77778 9.07859 8.63447C8.79503 9.14953 8.42023 9.42083 7.99275 9.72888C7.61795 9.99958 7.21374 10.2917 6.83098 10.7663C6.70665 10.446 6.48495 10.1417 6.15975 9.83177C4.98083 8.71042 4.61398 6.55957 5.30542 4.82946V4.83007ZM12.1542 7.51189C12.8181 7.49413 13.5034 7.25773 14.1997 6.80638C14.3418 6.73717 14.4508 6.80882 14.4496 6.96009C14.3632 7.66745 13.8157 8.0294 13.3111 8.0741C12.9271 8.10779 12.4696 7.96448 12.1542 7.51128V7.51189ZM8.14096 8.07471C7.63632 8.03001 7.08881 7.66806 7.00246 6.96071C6.99511 6.80148 7.13351 6.74023 7.25233 6.80699C7.94866 7.25835 8.63397 7.49413 9.29784 7.5125C8.98244 7.9657 8.52434 8.10901 8.14096 8.07533V8.07471ZM2.013 0.794775C2.12569 0.699849 2.25736 0.718834 2.27328 0.877453C2.27634 2.64982 3.84661 3.63338 4.84364 4.07923C4.76342 4.23111 4.68931 4.39034 4.62256 4.55692C4.25939 5.46516 4.14119 6.51608 4.2845 7.52965C2.59236 7.21976 1.39628 6.18415 0.968808 4.63225C0.560931 3.15201 1.05149 1.60441 2.01239 0.794775H2.013Z" fill="#94BF36"/>
<path d="M10.0291 5.28632C9.95748 5.23427 9.88644 5.18221 9.81601 5.13015C9.19317 4.669 8.53359 4.18946 7.61066 4.20233H7.02456C6.82185 4.20233 6.6571 4.36707 6.6571 4.56978C6.6571 4.7725 6.82185 4.93724 7.02456 4.93724H7.61494C8.3027 4.92989 8.80367 5.29612 9.37996 5.72115C9.45162 5.77443 9.5245 5.82771 9.59799 5.88099C9.76089 5.99919 9.99117 5.96428 10.1112 5.79893C10.23 5.6348 10.1933 5.40452 10.0291 5.28571V5.28632Z" fill="#94BF36"/>
<path d="M14.4276 4.20233H13.8458C12.9082 4.19192 12.262 4.66839 11.6361 5.12955C11.5657 5.1816 11.4947 5.23366 11.423 5.28572C11.2589 5.40453 11.2221 5.63419 11.341 5.79893C11.4604 5.96429 11.6913 5.9992 11.8542 5.881C11.9277 5.82772 12.0005 5.77382 12.0728 5.72115C12.6485 5.29613 13.1495 4.92867 13.8415 4.93725H14.4276C14.6303 4.93725 14.7951 4.7725 14.7951 4.56979C14.7951 4.36707 14.6303 4.20233 14.4276 4.20233Z" fill="#94BF36"/>
<path d="M22.5033 8.24525C22.7225 8.70212 23.1739 8.98628 23.681 8.98628H24.422V12.1348C24.422 13.0277 25.1484 13.754 26.0413 13.754H28.2595C29.1524 13.754 29.8788 13.0277 29.8788 12.1348V8.98628H30.6168C31.1238 8.98628 31.5752 8.70212 31.7945 8.24463C32.0137 7.78715 31.9525 7.2574 31.6346 6.86177L28.4071 2.84546C27.7977 2.04563 26.4896 2.04624 25.8815 2.84669L22.6613 6.86299C22.3441 7.25862 22.2834 7.78837 22.5027 8.24525H22.5033ZM23.2351 7.32232L26.4553 3.30601C26.7878 2.86874 27.5019 2.86874 27.8345 3.3054L31.062 7.3217C31.2028 7.49747 31.2292 7.72346 31.1318 7.92678C31.0344 8.13011 30.8415 8.25137 30.6168 8.25137H29.5113C29.3086 8.25137 29.1439 8.41611 29.1439 8.61883V12.1348C29.1439 12.6223 28.747 13.0191 28.2595 13.0191H26.0413C25.5538 13.0191 25.157 12.6223 25.157 12.1348V8.61883C25.157 8.41611 24.9922 8.25137 24.7895 8.25137H23.681C23.4556 8.25137 23.2633 8.13011 23.1659 7.9274C23.0686 7.72468 23.0943 7.49808 23.2351 7.32293V7.32232Z" fill="#94BF36"/>
</g>
<defs>
<clipPath id="clip0_47_1164">
<rect width="32" height="16" fill="white"/>
</clipPath>
</defs>
</svg>
