<svg width="32" height="16" viewBox="0 0 32 16" fill="none" xmlns="http://www.w3.org/2000/svg">
<g clip-path="url(#clip0_33_36)">
<path d="M19.2342 3.09096C19.2342 1.38683 17.8474 0 16.1433 0C15.1564 0 14.2321 0.476619 13.6533 1.26247C13.0678 1.05542 12.4473 0.94786 11.8006 0.94786C11.3166 0.94786 10.9717 1.05206 10.6981 1.14415C10.3365 1.26583 10.1778 1.26583 9.81614 1.14415C9.54187 1.05206 9.19768 0.94786 8.71367 0.94786C8.06764 0.94786 7.44716 1.05542 6.86097 1.26247C6.28217 0.476619 5.35784 0 4.37099 0C2.66686 0 1.28003 1.38683 1.28003 3.09096C1.28003 4.23579 1.89916 5.26297 2.884 5.80077C2.77173 6.19335 2.68837 6.59737 2.63728 7.00878C2.58754 7.41078 2.43964 7.79463 2.20907 8.11932C1.69547 8.84265 1.43532 9.61707 1.43532 10.4211C1.43532 11.9491 2.37914 13.3709 4.09336 14.4243C5.74572 15.44 7.93521 16 10.2571 16C12.579 16 14.7685 15.4407 16.4209 14.4243C18.1344 13.3709 19.0789 11.9491 19.0789 10.4211C19.0789 9.61707 18.8188 8.84265 18.3052 8.11932C18.0746 7.79463 17.9267 7.41078 17.877 7.00878C17.8259 6.59737 17.7425 6.19335 17.6303 5.80077C18.6158 5.26297 19.2342 4.23579 19.2342 3.09096ZM2.08672 3.09096C2.08672 1.83118 3.11121 0.806689 4.37099 0.806689C5.0392 0.806689 5.66976 1.10247 6.09932 1.59993C5.86471 1.72564 5.63682 1.86883 5.41767 2.03017C5.1434 1.75791 4.77098 1.59926 4.37032 1.59926C3.5475 1.59926 2.87862 2.26814 2.87862 3.09096C2.87862 3.58035 3.11256 4.02269 3.4917 4.29696C3.36666 4.53158 3.25238 4.77291 3.15155 5.02164C2.4941 4.60888 2.08605 3.88891 2.08605 3.09096H2.08672ZM4.79719 2.55653C4.70577 2.64459 4.61569 2.73535 4.52762 2.83013C4.30646 3.07012 4.10277 3.32826 3.91521 3.60052C3.77337 3.4728 3.68598 3.2886 3.68598 3.09096C3.68598 2.71316 3.99319 2.40595 4.37099 2.40595C4.52964 2.40595 4.6782 2.4604 4.79719 2.55586V2.55653ZM17.6471 8.58653C18.0618 9.17071 18.2723 9.78782 18.2723 10.4211C18.2723 11.658 17.4649 12.8358 15.9987 13.7372C14.4714 14.6764 12.4325 15.1933 10.2571 15.1933C8.08176 15.1933 6.04285 14.6764 4.51552 13.7372C3.04937 12.8358 2.24201 11.658 2.24201 10.4211C2.24201 9.78782 2.45242 9.17071 2.86652 8.58653C3.1744 8.15361 3.37137 7.64203 3.43792 7.1076C3.76665 4.44754 5.68388 1.75455 8.71299 1.75455C9.07197 1.75455 9.32608 1.83522 9.57212 1.9132C9.98756 2.08596 10.5267 2.08529 10.9421 1.9132C11.1875 1.83522 11.4416 1.75455 11.8013 1.75455C14.8297 1.75455 16.7476 4.44754 17.0763 7.1076C17.1422 7.64203 17.3399 8.15361 17.6477 8.58653H17.6471ZM15.7171 2.55653C15.8361 2.46107 15.9846 2.40662 16.1433 2.40662C16.5211 2.40662 16.8283 2.71383 16.8283 3.09163C16.8283 3.2886 16.7409 3.47347 16.599 3.60119C16.4122 3.32894 16.2078 3.07079 15.9866 2.8308C15.8992 2.73602 15.8085 2.64527 15.7171 2.5572V2.55653ZM17.362 5.02231C17.2612 4.77358 17.1476 4.53157 17.0219 4.29763C17.4004 4.02336 17.635 3.58103 17.635 3.09163C17.635 2.26881 16.9661 1.59993 16.1433 1.59993C15.7426 1.59993 15.3702 1.75858 15.0959 2.03084C14.8768 1.8695 14.6489 1.72631 14.4143 1.6006C14.8438 1.10382 15.4744 0.807362 16.1426 0.807362C17.4024 0.807362 18.4269 1.83186 18.4269 3.09163C18.4269 3.88958 18.0188 4.60955 17.3614 5.02231H17.362Z" fill="white"/>
<path d="M12.0244 7.26691C10.9509 6.53887 9.56404 6.53887 8.49047 7.26691C7.85117 7.7005 7.1796 8.49778 6.72853 9.09002C6.08519 9.9357 6.13494 11.1141 6.84751 11.8912C7.56278 12.6717 8.71029 13.067 10.2571 13.067C11.8039 13.067 12.9958 12.6563 13.7071 11.8455C14.382 11.0765 14.4156 9.91755 13.7857 9.0907C13.3346 8.49845 12.6631 7.70117 12.0238 7.26691H12.0244ZM13.1014 11.3131C12.5501 11.9417 11.5929 12.2603 10.2578 12.2603C8.92272 12.2603 7.99974 11.9524 7.44312 11.3461C6.99474 10.8567 6.96448 10.1132 7.37119 9.57874C7.78529 9.03423 8.39434 8.30753 8.94356 7.93511C9.74151 7.39396 10.7734 7.39396 11.572 7.93511C12.1219 8.30753 12.731 9.0349 13.1451 9.57941C13.543 10.1024 13.5249 10.8318 13.102 11.3138L13.1014 11.3131Z" fill="white"/>
<path d="M7.39133 7.46993C7.9829 7.46993 8.5012 7.12978 8.68136 6.62426C8.75598 6.41452 8.64641 6.18394 8.43667 6.10932C8.22693 6.0347 7.99635 6.14427 7.92173 6.35401C7.85787 6.5335 7.63536 6.66324 7.392 6.66324C7.14865 6.66324 6.92614 6.53283 6.86228 6.35401C6.78766 6.14427 6.55708 6.0347 6.34734 6.10932C6.1376 6.18394 6.02803 6.41452 6.10265 6.62426C6.28281 7.12978 6.80111 7.46993 7.39268 7.46993H7.39133Z" fill="white"/>
<path d="M14.1682 6.10932C13.9585 6.0347 13.7279 6.14427 13.6533 6.35401C13.5894 6.5335 13.3669 6.66324 13.1236 6.66324C12.8802 6.66324 12.6577 6.53283 12.5938 6.35401C12.5192 6.14427 12.2886 6.0347 12.0789 6.10932C11.8692 6.18394 11.7596 6.41452 11.8342 6.62426C12.0144 7.12978 12.5327 7.46993 13.1242 7.46993C13.7158 7.46993 14.2341 7.12978 14.4143 6.62426C14.4889 6.41452 14.3793 6.18394 14.1696 6.10932H14.1682Z" fill="white"/>
<path d="M11.5673 10.5152L10.6612 10.1374V10.1327C10.7378 10.0964 10.8104 10.0486 10.8763 9.99016L11.4295 9.50212C11.724 9.24196 11.8248 8.8366 11.6857 8.46889C11.5465 8.10117 11.203 7.86387 10.8097 7.86387H9.70389C9.31063 7.86387 8.96711 8.10117 8.82796 8.46889C8.68881 8.8366 8.78964 9.24196 9.08408 9.50212L9.63734 9.99016C9.70389 10.0493 9.77784 10.0971 9.85514 10.1334V10.1374L8.94896 10.5152C8.74326 10.6012 8.64645 10.8372 8.73183 11.0429C8.81788 11.2486 9.05383 11.3454 9.25954 11.26L10.2585 10.8432L11.2568 11.26C11.4571 11.3454 11.6984 11.2506 11.7845 11.0429C11.8705 10.8372 11.773 10.6012 11.5673 10.5152ZM10.1711 9.38515L9.61784 8.8971C9.52642 8.81778 9.58221 8.66921 9.70389 8.66988H10.8097C10.9307 8.66921 10.9872 8.81711 10.8958 8.8971L10.3425 9.38515C10.2934 9.42817 10.2195 9.42817 10.1704 9.38515H10.1711Z" fill="white"/>
<path d="M24.0943 13.6579C24.7632 14.5359 26.1991 14.5352 26.8666 13.6566L30.4013 9.24801C30.7495 8.81374 30.816 8.23226 30.5754 7.73077C30.3347 7.22927 29.8393 6.91735 29.2827 6.91735H28.4693V3.46136C28.4693 2.48124 27.672 1.68396 26.6919 1.68396H24.257C23.2769 1.68396 22.4796 2.48124 22.4796 3.46136V6.91735H21.6695C21.1129 6.91735 20.6175 7.22927 20.3768 7.73144C20.1362 8.2336 20.2034 8.81509 20.5523 9.24936L24.095 13.6579H24.0943ZM21.1035 8.08033C21.2104 7.85715 21.4222 7.72404 21.6689 7.72404H22.8823C23.1048 7.72404 23.2856 7.54321 23.2856 7.3207V3.46136C23.2856 2.92626 23.7212 2.49065 24.2563 2.49065H26.6912C27.2263 2.49065 27.6619 2.92626 27.6619 3.46136V7.3207C27.6619 7.54321 27.8427 7.72404 28.0652 7.72404H29.282C29.5294 7.72404 29.7405 7.85715 29.8473 8.07966C29.9542 8.30217 29.926 8.5509 29.7714 8.74316L26.2367 13.1517C25.8717 13.6317 25.0879 13.6317 24.7229 13.1524L21.1802 8.74383C21.0255 8.5509 20.9966 8.30284 21.1035 8.07966V8.08033Z" fill="white"/>
</g>
<defs>
<clipPath id="clip0_33_36">
<rect width="32" height="16" fill="white"/>
</clipPath>
</defs>
</svg>
